<?xml version="1.0" encoding="UTF-8"?>
<!DOCTYPE svg PUBLIC "-//W3C//DTD SVG 1.1//EN" "http://www.w3.org/Graphics/SVG/1.1/DTD/svg11.dtd">
<svg xmlns="http://www.w3.org/2000/svg" version="1.1" width="400px" height="115px" style="shape-rendering:geometricPrecision; text-rendering:geometricPrecision; image-rendering:optimizeQuality; fill-rule:evenodd; clip-rule:evenodd" xmlns:xlink="http://www.w3.org/1999/xlink">
<g><path style="opacity:0.778" fill="#fe8f00" d="M 36.5,-0.5 C 38.1667,-0.5 39.8333,-0.5 41.5,-0.5C 40.9957,8.20613 40.4957,16.8728 40,25.5C 41.3333,20.8333 42.6667,16.1667 44,11.5C 46.2756,8.87454 48.109,9.20788 49.5,12.5C 46.1508,20.527 42.8174,28.527 39.5,36.5C 38.8333,36.5 38.5,36.8333 38.5,37.5C 37.5519,34.7004 37.8852,31.8671 39.5,29C 37.6289,20.0924 36.2956,11.0924 35.5,2C 36.2524,1.32924 36.5858,0.495904 36.5,-0.5 Z"/></g>
<g><path style="opacity:0.834" fill="#fefefe" d="M 109.5,36.5 C 112.167,36.5 114.833,36.5 117.5,36.5C 117.5,47.5 117.5,58.5 117.5,69.5C 127.167,69.5 136.833,69.5 146.5,69.5C 146.5,71.8333 146.5,74.1667 146.5,76.5C 134.167,76.5 121.833,76.5 109.5,76.5C 109.5,63.1667 109.5,49.8333 109.5,36.5 Z"/></g>
<g><path style="opacity:0.931" fill="#fefefe" d="M 151.5,36.5 C 153.833,36.5 156.167,36.5 158.5,36.5C 158.5,49.8333 158.5,63.1667 158.5,76.5C 156.167,76.5 153.833,76.5 151.5,76.5C 151.5,63.1667 151.5,49.8333 151.5,36.5 Z"/></g>
<g><path style="opacity:0.858" fill="#fefefe" d="M 168.5,36.5 C 172.226,36.1774 175.893,36.5108 179.5,37.5C 186.139,47.3054 192.972,56.9721 200,66.5C 206.833,56.8333 213.667,47.1667 220.5,37.5C 224.107,36.5108 227.774,36.1774 231.5,36.5C 231.5,49.8333 231.5,63.1667 231.5,76.5C 228.833,76.5 226.167,76.5 223.5,76.5C 223.666,66.8276 223.5,57.1609 223,47.5C 216.305,56.6953 209.805,66.0286 203.5,75.5C 200.966,76.7766 198.466,76.7766 196,75.5C 189.58,65.6593 182.913,55.9926 176,46.5C 175.5,56.4944 175.334,66.4944 175.5,76.5C 173.167,76.5 170.833,76.5 168.5,76.5C 168.5,63.1667 168.5,49.8333 168.5,36.5 Z"/></g>
<g><path style="opacity:0.861" fill="#fefefe" d="M 240.5,36.5 C 244.226,36.1774 247.893,36.5108 251.5,37.5C 258.139,47.3054 264.972,56.9721 272,66.5C 279.028,56.9721 285.861,47.3054 292.5,37.5C 296.107,36.5108 299.774,36.1774 303.5,36.5C 303.5,49.8333 303.5,63.1667 303.5,76.5C 300.833,76.5 298.167,76.5 295.5,76.5C 295.666,66.8276 295.5,57.1609 295,47.5C 288.305,56.6953 281.805,66.0286 275.5,75.5C 271.485,77.1153 268.319,76.1153 266,72.5C 260,63.8333 254,55.1667 248,46.5C 247.5,56.4944 247.334,66.4944 247.5,76.5C 245.167,76.5 242.833,76.5 240.5,76.5C 240.5,63.1667 240.5,49.8333 240.5,36.5 Z"/></g>
<g><path style="opacity:0.839" fill="#fefefe" d="M 329.5,36.5 C 332.518,36.3354 335.518,36.502 338.5,37C 346.897,49.7356 354.897,62.7356 362.5,76C 359.5,76.6667 356.5,76.6667 353.5,76C 351.968,73.9656 350.635,71.7989 349.5,69.5C 339.851,68.3345 330.184,68.1679 320.5,69C 318.791,70.9157 317.457,73.0824 316.5,75.5C 313.5,76.8333 310.5,76.8333 307.5,75.5C 315.111,62.6075 322.444,49.6075 329.5,36.5 Z M 333.5,45.5 C 335.074,45.9371 336.241,46.9371 337,48.5C 339.374,52.7495 341.874,56.9162 344.5,61C 337.833,61.6667 331.167,61.6667 324.5,61C 327.638,55.8877 330.638,50.7211 333.5,45.5 Z"/></g>
<g><path style="opacity:0.872" fill="#fefefe" d="M 399.5,36.5 C 399.5,38.8333 399.5,41.1667 399.5,43.5C 392.833,43.5 386.167,43.5 379.5,43.5C 379.5,54.5 379.5,65.5 379.5,76.5C 377.167,76.5 374.833,76.5 372.5,76.5C 372.5,65.5 372.5,54.5 372.5,43.5C 366.167,43.5 359.833,43.5 353.5,43.5C 353.5,41.1667 353.5,38.8333 353.5,36.5C 368.833,36.5 384.167,36.5 399.5,36.5 Z"/></g>
<g><path style="opacity:0.774" fill="#fe8e00" d="M 43.5,66.5 C 34.1169,71.6094 24.6169,76.6094 15,81.5C 12.4103,80.3132 11.9103,78.4798 13.5,76C 24.4183,71.1384 35.4183,66.4718 46.5,62C 33.4705,64.3383 20.4705,67.1716 7.5,70.5C 4.4825,69.6198 3.81584,67.7864 5.5,65C 18.4856,62.9068 31.4856,60.9068 44.5,59C 29.5238,57.8018 14.5238,57.3018 -0.5,57.5C -0.5,57.1667 -0.5,56.8333 -0.5,56.5C 7.74207,56.0703 15.9087,55.0703 24,53.5C 26.0397,51.2241 28.5397,49.5574 31.5,48.5C 33.4288,44.5721 35.7622,40.9055 38.5,37.5C 39.1667,37.5 39.5,37.1667 39.5,36.5C 44.4783,31.187 49.4783,25.8537 54.5,20.5C 56.9456,21.427 57.7789,23.0937 57,25.5C 49.8333,32 42.6667,38.5 35.5,45C 44.6332,41.1001 53.6332,36.6001 62.5,31.5C 64.9456,32.427 65.7789,34.0937 65,36.5C 53.8504,41.3292 42.6838,46.1625 31.5,51C 44.3883,48.7382 57.2216,45.9049 70,42.5C 72.9669,43.2621 73.8002,44.9288 72.5,47.5C 57.6059,50.5092 42.6059,53.0092 27.5,55C 42.9899,54.863 58.4899,54.363 74,53.5C 79.4162,52.2452 81.2495,54.0786 79.5,59C 72.8152,59.6656 66.1485,59.499 59.5,58.5C 56.7737,58.6816 54.1071,59.1816 51.5,60C 51.8333,60.3333 52.1667,60.6667 52.5,61C 49.4362,62.8588 46.4362,64.6921 43.5,66.5 Z"/></g>
<g><path style="opacity:0.771" fill="#fe8d00" d="M 43.5,66.5 C 44.2389,66.369 44.9056,66.5357 45.5,67C 42.9245,70.0628 40.5912,73.2295 38.5,76.5C 33.699,81.4716 29.0324,86.6382 24.5,92C 20.9124,92.6114 19.7458,91.1114 21,87.5C 28.6971,80.6337 36.1971,73.6337 43.5,66.5 Z"/></g>
<g><path style="opacity:0.762" fill="#fe8f00" d="M 39.5,114.5 C 38.8333,114.5 38.1667,114.5 37.5,114.5C 36.8592,113.518 36.1925,112.518 35.5,111.5C 36.773,104.223 37.273,96.8897 37,89.5C 35.8195,93.8911 34.4861,98.2245 33,102.5C 30.2003,104.118 28.7003,103.285 28.5,100C 31.4253,91.9839 34.7586,84.1506 38.5,76.5C 39.6499,75.1498 40.3166,75.3164 40.5,77C 39.8333,79.3333 39.1667,81.6667 38.5,84C 40.0219,92.0913 41.0219,100.258 41.5,108.5C 41.3241,110.785 40.6574,112.785 39.5,114.5 Z"/></g>
</svg>
